<svg width="1280" height="222" viewBox="0 0 1280 222" fill="none" xmlns="http://www.w3.org/2000/svg">
<path d="M6.00002 186.632C64.6459 184.122 257.596 162.184 315.408 152.593C378.299 142.159 440.579 128.528 503.32 117.313C553.407 108.361 603.589 99.7844 653.856 91.7844C688.068 86.3395 722.792 82.4027 756.711 75.3855C785.605 69.408 813.798 60.7884 842.705 54.7319C912.247 40.1615 982.869 27.9808 1053.66 20.3386C1116.73 13.5299 1180.07 13.2715 1243.45 13.4245C1251.95 13.4451 1277.1 12.4351 1268.93 14.6655M6.00002 211.274C56.1396 211.099 106.538 211.521 156.442 206.133C295.442 191.126 427.254 140.616 559.244 99.9395C618.699 81.6166 678.949 67.5718 740.037 55.0864C832.961 36.0942 926.016 20.1014 1021.06 14.7542C1177.87 5.93246 1122.22 -0.130872 1278.96 6.66238" stroke="#0D6EFD" stroke-width="5.99172" stroke-linecap="round"/>
<g filter="url(#filter0_d_361_2)">
<path d="M7.0486 186.551C65.6945 184.042 258.645 162.104 316.457 152.512C379.348 142.079 441.627 128.447 504.369 117.233C554.456 108.28 604.638 99.7038 654.905 91.7038C689.117 86.2589 723.84 82.3221 757.76 75.305C786.654 69.3274 814.846 60.7078 843.753 54.6513C913.295 40.081 983.917 27.9002 1054.71 20.2581C1117.78 13.4493 1181.11 13.191 1244.49 13.344C1253 13.3645 1278.15 12.3545 1269.97 14.585M7.0486 211.194C57.1882 211.019 107.586 211.44 157.491 206.052C296.491 191.045 428.303 140.536 560.293 99.8589C619.748 81.536 679.998 67.4913 741.085 55.0059C834.009 36.0137 927.064 20.0208 1022.11 14.6736C1178.92 5.8519 1123.27 -0.211438 1280.01 6.58182" stroke="#0D6EFD" stroke-width="5.99172" stroke-linecap="round"/>
</g>
<defs>
<filter id="filter0_d_361_2" x="0.501945" y="0.67334" width="1286.05" height="220.618" filterUnits="userSpaceOnUse" color-interpolation-filters="sRGB">
<feFlood flood-opacity="0" result="BackgroundImageFix"/>
<feColorMatrix in="SourceAlpha" type="matrix" values="0 0 0 0 0 0 0 0 0 0 0 0 0 0 0 0 0 0 127 0" result="hardAlpha"/>
<feOffset dy="3.55079"/>
<feGaussianBlur stdDeviation="1.77539"/>
<feComposite in2="hardAlpha" operator="out"/>
<feColorMatrix type="matrix" values="0 0 0 0 0 0 0 0 0 0 0 0 0 0 0 0 0 0 0.25 0"/>
<feBlend mode="normal" in2="BackgroundImageFix" result="effect1_dropShadow_361_2"/>
<feBlend mode="normal" in="SourceGraphic" in2="effect1_dropShadow_361_2" result="shape"/>
</filter>
</defs>
</svg>
