<svg width="1280" height="221" viewBox="0 0 1280 221" fill="none" xmlns="http://www.w3.org/2000/svg">
<path d="M1292.79 185.934C1234.15 183.425 1041.23 161.491 983.432 151.901C920.552 141.469 858.283 127.84 795.553 116.628C745.474 107.677 695.301 99.1018 645.043 91.1032C610.837 85.6592 576.119 81.7231 542.206 74.7071C513.317 68.7306 485.129 60.1125 456.227 54.057C386.697 39.4892 316.087 27.3106 245.307 19.6698C182.246 12.8622 118.924 12.6039 55.5547 12.7569C47.0518 12.7774 21.9098 11.7676 30.0796 13.9976M1292.79 210.572C1242.66 210.398 1192.27 210.819 1142.37 205.432C1003.39 190.428 871.606 139.927 739.639 99.2568C680.194 80.9371 619.954 66.8948 558.877 54.4116C465.969 35.4226 372.93 19.4325 277.901 14.0863C121.122 5.26607 176.762 -0.796218 20.0485 5.99586" stroke="#0D6EFD" stroke-width="5.99069" stroke-linecap="round"/>
<g filter="url(#filter0_d_361_3)">
<path d="M1272.74 185.853C1214.1 183.344 1021.19 161.41 963.384 151.82C900.504 141.388 838.235 127.759 775.504 116.547C725.426 107.596 675.253 99.0207 624.995 91.0221C590.788 85.5782 556.071 81.642 522.157 74.6261C493.268 68.6496 465.08 60.0315 436.178 53.976C366.648 39.4082 296.039 27.2295 225.259 19.5887C162.197 12.7811 98.8755 12.5228 35.5062 12.6758C27.0033 12.6963 1.86131 11.6865 10.0312 13.9166M1272.74 210.491C1222.61 210.317 1172.22 210.738 1122.32 205.351C983.346 190.346 851.557 139.845 719.59 99.1758C660.145 80.8561 599.906 66.8138 538.829 54.3305C445.921 35.3416 352.882 19.3515 257.852 14.0052C101.074 5.18501 156.713 -0.877273 2.6859e-05 5.91481" stroke="#0D6EFD" stroke-width="5.99069" stroke-linecap="round"/>
</g>
<defs>
<filter id="filter0_d_361_3" x="-6.54554" y="0.00732422" width="1285.83" height="220.58" filterUnits="userSpaceOnUse" color-interpolation-filters="sRGB">
<feFlood flood-opacity="0" result="BackgroundImageFix"/>
<feColorMatrix in="SourceAlpha" type="matrix" values="0 0 0 0 0 0 0 0 0 0 0 0 0 0 0 0 0 0 127 0" result="hardAlpha"/>
<feOffset dy="3.55018"/>
<feGaussianBlur stdDeviation="1.77509"/>
<feComposite in2="hardAlpha" operator="out"/>
<feColorMatrix type="matrix" values="0 0 0 0 0 0 0 0 0 0 0 0 0 0 0 0 0 0 0.25 0"/>
<feBlend mode="normal" in2="BackgroundImageFix" result="effect1_dropShadow_361_3"/>
<feBlend mode="normal" in="SourceGraphic" in2="effect1_dropShadow_361_3" result="shape"/>
</filter>
</defs>
</svg>
